<?xml version="1.0" encoding="utf-8"?>
<!-- Generator: Adobe Illustrator 24.0.1, SVG Export Plug-In . SVG Version: 6.00 Build 0)  -->
<svg version="1.1" id="图层_1" xmlns="http://www.w3.org/2000/svg" xmlns:xlink="http://www.w3.org/1999/xlink" x="0px" y="0px"
	 viewBox="0 0 512 512" style="enable-background:new 0 0 512 512;" xml:space="preserve">
<style type="text/css">
	.st0{fill:#555555;}
	.st1{fill:#CCCCCC;}
	.st2{fill:#848484;}
</style>
<path class="st0" d="M480.78,469.11H40.08c-0.55,0-1-0.45-1-1V183.66c0-0.55,0.45-1,1-1h440.7c0.55,0,1,0.45,1,1v284.45
	C481.78,468.66,481.33,469.11,480.78,469.11z"/>
<path class="st0" d="M474.35,107.02l-434,76.53c-0.54,0.1-1.06-0.27-1.16-0.81l-10.96-62.14c-0.1-0.54,0.27-1.06,0.81-1.16
	l434-76.53c0.54-0.1,1.06,0.27,1.16,0.81l10.96,62.14C475.26,106.4,474.9,106.92,474.35,107.02z"/>
<g>
	<g>
		<rect x="39.08" y="241.25" class="st1" width="442.7" height="13.02"/>
	</g>
	<g>
		<path class="st1" d="M177.49,182.66l-33.68,59.06c-1.93,3.39-0.75,7.71,2.65,9.65c1.11,0.63,2.31,0.93,3.5,0.93
			c2.46,0,4.85-1.28,6.15-3.57l37.24-65.32c0.14-0.24,0.14-0.51,0.25-0.75H177.49z"/>
	</g>
	<g>
		<path class="st1" d="M352.44,182.66l-33.68,59.06c-1.93,3.39-0.75,7.71,2.65,9.65c1.11,0.63,2.31,0.93,3.5,0.93
			c2.46,0,4.85-1.28,6.15-3.57l37.24-65.32c0.14-0.24,0.14-0.51,0.25-0.75H352.44z"/>
	</g>
</g>
<g>
	<g>
		<path class="st2" d="M1365.99,367.47c0-29.22-34.36-65.21-61.69-69.27l37.07-61.15h-85.77c15.42-22.19,25.7-51.41,25.7-83.88
			v-7.58c33.28-5.95,54.93-15.42,54.93-24.89c0-10.28-24.08-19.75-60.88-25.71c-1.62-8.66-26.52-78.74-55.74-78.74
			c-12.99,0-23.27,6.76-30.04,17.05c0,5.14-5.14,10.28-11.91,10.28c-5.95,0-11.09-4.33-11.9-9.47
			c-5.96-10.28-17.05-18.13-30.04-18.13c-28.41,0-54.93,64.4-60.88,80.63c-31.66,5.95-52.22,14.61-52.22,24.89
			c0,10.28,21.38,18.94,54.93,24.89v7.57c0,32.47,9.47,61.69,25.71,83.88h-85.77l36.8,60.07c-27.33,0-63.32,37.61-63.32,70.35
			l0.81,98.49c0,16.24,12.72,29.22,29.22,29.22h316.84c7.76,0.03,15.21-3.04,20.7-8.52c5.49-5.49,8.55-12.94,8.52-20.7
			L1365.99,367.47z M1156.3,471.92h-13.8l-25.71-189.4l53.85,47.08L1156.3,471.92z M1215.28,471.92h-13.8l-14.61-142.33l54.11-47.89
			L1215.28,471.92z M1247.75,172.93v5.95h-6.76c0,0-4.33,36.8-27.33,36.8c-23.27,0-27.6-36.8-27.6-36.8h-15.42
			c-3.52,30.03-18.94,36.8-27.33,36.8c-20.56,0-26.52-27.33-27.33-36.8h-7.03v-11.9h51.41v5.95h34.37v-5.95h51.41v5.95
			L1247.75,172.93L1247.75,172.93z M1247.75,172.93"/>
	</g>
</g>
<g>
	<g>
		<path class="st0" d="M-324.08-371.31l-42.87,42.86l12.61,50.41l50.41,12.61l42.87-42.86c12.41,38.36,0.09,80.42-31.07,106.01
			c-31.16,25.59-74.81,29.5-110.02,9.87l-57,56.98l163.27,163.27l5.91,29.49l-29.49-5.91l-163.27-163.27l-56.98,57
			c19.63,35.22,15.71,78.87-9.88,110.02c-25.59,31.16-67.64,43.48-106.01,31.06l42.87-42.86l-12.61-50.41l-50.41-12.61l-42.87,42.86
			c-12.42-38.37-0.09-80.43,31.07-106.02c31.17-25.59,74.82-29.5,110.04-9.85l56.99-56.99l-45.63-45.62l-17.7,17.68l-23.59-23.59
			l-23.59,23.6l-82.58-82.58c-13.02-13.03-13.02-34.15,0-47.18l58.95-58.99c6.26-6.26,14.75-9.78,23.6-9.78
			c8.85,0,17.34,3.52,23.6,9.78l82.58,82.58l-23.61,23.59l23.62,23.59l-17.68,17.68l45.63,45.64l56.99-56.98
			c-19.64-35.22-15.72-78.86,9.87-110.02C-404.49-371.4-362.44-383.72-324.08-371.31L-324.08-371.31z M-324.08-371.31"/>
	</g>
</g>
<g>
	<g>
		<g>
			<path class="st0" d="M-180.48,354.68c0-5.91-6.95-13.18-12.47-14l7.49-12.36h-17.34c3.12-4.48,5.2-10.39,5.2-16.95v-1.53
				c6.73-1.2,11.1-3.12,11.1-5.03c0-2.08-4.87-3.99-12.3-5.2c-0.33-1.75-5.36-15.91-11.27-15.91c-2.63,0-4.7,1.37-6.07,3.45
				c0,1.04-1.04,2.08-2.41,2.08c-1.2,0-2.24-0.88-2.41-1.91c-1.2-2.08-3.45-3.66-6.07-3.66c-5.74,0-11.1,13.02-12.31,16.3
				c-6.4,1.2-10.56,2.95-10.56,5.03c0,2.08,4.32,3.83,11.1,5.03v1.53c0,6.56,1.91,12.47,5.2,16.95h-17.34l7.44,12.14
				c-5.52,0-12.8,7.6-12.8,14.22l0.16,19.91c0,3.28,2.57,5.91,5.91,5.91h64.04c1.57,0.01,3.07-0.61,4.18-1.72
				c1.11-1.11,1.73-2.62,1.72-4.18L-180.48,354.68z M-222.87,375.79h-2.79l-5.2-38.28l10.88,9.52L-222.87,375.79z M-210.94,375.79
				h-2.79l-2.95-28.77l10.94-9.68L-210.94,375.79z M-204.38,315.36v1.2h-1.37c0,0-0.88,7.44-5.52,7.44c-4.7,0-5.58-7.44-5.58-7.44
				h-3.12c-0.71,6.07-3.83,7.44-5.52,7.44c-4.16,0-5.36-5.52-5.52-7.44h-1.42v-2.41h10.39v1.2h6.95v-1.2h10.39v1.2L-204.38,315.36
				L-204.38,315.36z M-204.38,315.36"/>
		</g>
	</g>
</g>
<g>
	<g>
		<g>
			<path class="st2" d="M-190.15,225.77c0-2.19-2.58-4.89-4.63-5.19l2.78-4.59h-6.43c1.16-1.66,1.93-3.86,1.93-6.29v-0.57
				c2.5-0.45,4.12-1.16,4.12-1.87c0-0.77-1.81-1.48-4.57-1.93c-0.12-0.65-1.99-5.91-4.18-5.91c-0.97,0-1.75,0.51-2.25,1.28
				c0,0.39-0.39,0.77-0.89,0.77c-0.45,0-0.83-0.32-0.89-0.71c-0.45-0.77-1.28-1.36-2.25-1.36c-2.13,0-4.12,4.83-4.57,6.05
				c-2.37,0.45-3.92,1.1-3.92,1.87c0,0.77,1.6,1.42,4.12,1.87v0.57c0,2.44,0.71,4.63,1.93,6.29h-6.43l2.76,4.51
				c-2.05,0-4.75,2.82-4.75,5.28l0.06,7.39c0,1.22,0.95,2.19,2.19,2.19h23.76c0.58,0,1.14-0.23,1.55-0.64
				c0.41-0.41,0.64-0.97,0.64-1.55L-190.15,225.77z M-205.87,233.6h-1.03l-1.93-14.21l4.04,3.53L-205.87,233.6z M-201.45,233.6
				h-1.03l-1.1-10.67l4.06-3.59L-201.45,233.6z M-199.01,211.18v0.45h-0.51c0,0-0.32,2.76-2.05,2.76c-1.75,0-2.07-2.76-2.07-2.76
				h-1.16c-0.26,2.25-1.42,2.76-2.05,2.76c-1.54,0-1.99-2.05-2.05-2.76h-0.53v-0.89h3.86v0.45h2.58v-0.45h3.86v0.45L-199.01,211.18
				L-199.01,211.18z M-199.01,211.18"/>
		</g>
	</g>
</g>
</svg>
