<?xml version="1.0" encoding="utf-8"?>
<!-- Generator: Adobe Illustrator 24.0.1, SVG Export Plug-In . SVG Version: 6.00 Build 0)  -->
<svg version="1.1" id="图层_1" xmlns="http://www.w3.org/2000/svg" xmlns:xlink="http://www.w3.org/1999/xlink" x="0px" y="0px"
	 viewBox="0 0 512 512" style="enable-background:new 0 0 512 512;" xml:space="preserve">
<style type="text/css">
	.st0{fill:#FFFFFF;}
</style>
<path class="st0" d="M301.46,271.78c39.43-17.49,67-57.01,67-102.85c0-62.01-50.45-112.45-112.45-112.45
	s-112.45,50.45-112.45,112.45c0,45.84,27.57,85.35,67,102.85C133.68,291.95,76.8,362.01,76.8,445.11c0,6.28,5.09,11.36,11.36,11.36
	s11.36-5.08,11.36-11.36c0-86.27,70.19-156.47,156.48-156.47s156.48,70.19,156.48,156.47c0,6.28,5.09,11.36,11.36,11.36
	s11.36-5.08,11.36-11.36C435.2,362.01,378.32,291.95,301.46,271.78z M166.27,168.93c0-49.48,40.26-89.73,89.73-89.73
	s89.73,40.25,89.73,89.73s-40.26,89.73-89.73,89.73S166.27,218.41,166.27,168.93z"/>
</svg>
